<svg xmlns="http://www.w3.org/2000/svg" width="691.377" height="722.724" viewBox="0 0 691.377 722.724"><g transform="translate(0 -0.386)"><ellipse cx="29" cy="28" rx="29" ry="28" transform="translate(537.425 0.386)" fill="#fff"/><path d="M1890.685,625.054c-92.612-18.956-183.2,70.233-162.813,208.76,19.676,133.716,39.258,239.005,232.284,118.724,67.527-42.078,197.519-64.853,265.776-71.471,171.568-16.636,108.437-315.648,9.217-382.594-102.6-69.228-166.51-3.687-197.834,64.829S1983.269,644,1890.685,625.054Z" transform="translate(-1724.974 -324.659)" fill="#fdc11f"/><path d="M24,5.417A18.86,18.86,0,0,0,5.417,24.5,18.86,18.86,0,0,0,24,43.583,18.86,18.86,0,0,0,42.583,24.5,18.86,18.86,0,0,0,24,5.417M24,0A24.254,24.254,0,0,1,48,24.5,24.254,24.254,0,0,1,24,49,24.254,24.254,0,0,1,0,24.5,24.254,24.254,0,0,1,24,0Z" transform="translate(639.424 3.386)" fill="#fdc11f"/><path d="M1902.869,624.229c-32.05,0-55.755,10.356-70.458,30.781-30.712,42.666-48.928,176.726-13.389,261.355,18.422,43.867,48.238,69.241,88.621,75.415,35.728,5.463,73.748,18.259,110.516,30.633,50.458,16.982,102.633,34.542,151.5,34.542,53.732,0,97.385-21.919,133.451-67.011,8.036-10.047,11-23.245,8.811-39.226-9.451-68.985-108.729-172.971-201.913-240.037-76.338-54.942-151.838-86.452-207.141-86.452m0-5.417c57.033,0,133.572,32.246,210.306,87.473,120.4,86.653,242.109,227.105,194.167,287.043-113.738,142.2-268.9,23.931-400.518,3.807-146.638-22.422-123.648-283-78.809-345.289C1844.277,629.254,1870.415,618.812,1902.869,618.812Z" transform="translate(-1766.06 -413.796)" fill="#fff"/><path d="M3368.9,1851a16,16,0,1,1,16.025-16A16.013,16.013,0,0,1,3368.9,1851Zm6.366-17.368-7.39-7.429a2.051,2.051,0,1,0-2.913,2.888l5.953,5.985-5.953,5.985a2.051,2.051,0,0,0,2.913,2.889l7.39-7.43A2.047,2.047,0,0,0,3375.264,1833.627Z" transform="translate(-2693.546 -1127.885)" fill="#fdc11f"/><path d="M3249.02,1819A16,16,0,1,1,3233,1835,16.012,16.012,0,0,1,3249.02,1819Zm-6.366,17.368,7.389,7.43a2.051,2.051,0,0,0,2.913-2.888L3247,1834.92l5.953-5.985a2.051,2.051,0,0,0-2.913-2.888l-7.389,7.43A2.047,2.047,0,0,0,3242.654,1836.364Z" transform="translate(-2622.221 -1127.885)" fill="#fdc11f"/></g></svg>