<svg xmlns="http://www.w3.org/2000/svg" width="64.406" height="67.181" viewBox="0 0 64.406 67.181"><path d="M1602.8,668.793a6.694,6.694,0,0,0-.924-2.424l10.862-9.222a6.623,6.623,0,0,0,10.7-2.751,6.744,6.744,0,0,0-4.073-8.556,6.659,6.659,0,0,0-1.349-.328L1617,630.224a6.744,6.744,0,0,0,.359-9.05,6.637,6.637,0,0,0-8.922-1.171l-14.8-3.592a6.782,6.782,0,0,0-.094-1.394,6.692,6.692,0,0,0-7.691-5.484,6.578,6.578,0,0,0-4.3,2.725,6.738,6.738,0,0,0-.2,7.433l-10.862,9.221a6.623,6.623,0,0,0-10.7,2.75,6.754,6.754,0,0,0,1.207,6.561,6.648,6.648,0,0,0,2.865,2,6.718,6.718,0,0,0,1.349.328l1.021,15.288a6.744,6.744,0,0,0-.359,9.05,6.637,6.637,0,0,0,8.922,1.171l14.8,3.592a6.782,6.782,0,0,0,.094,1.394,6.7,6.7,0,0,0,7.691,5.484,6.58,6.58,0,0,0,4.3-2.726,6.679,6.679,0,0,0,1.121-5.007Zm12.425-20.69a4.411,4.411,0,0,1,1.824-.438h.018a4.469,4.469,0,0,1,3.492,1.6,4.53,4.53,0,0,1,.811,4.4,4.431,4.431,0,0,1-5.68,2.726,4.525,4.525,0,0,1-2.735-5.74,4.422,4.422,0,0,1,2.27-2.548Zm.455-25.5a4.516,4.516,0,0,1-.519,6.328,4.446,4.446,0,0,1-6.285-.553,4.516,4.516,0,0,1,.519-6.329,4.445,4.445,0,0,1,6.284.553Zm-9-.749a6.762,6.762,0,0,0-.116,7.045l-1.837,1.559a1.111,1.111,0,0,0-.131,1.558,1.093,1.093,0,0,0,1.548.132l1.837-1.559a6.645,6.645,0,0,0,6.918,1.073l.93,13.925a6.653,6.653,0,0,0-4.448,3.244l-10.338-3.764a9.468,9.468,0,0,0-1.252-7.525l2.482-2.107a1.11,1.11,0,0,0,.132-1.557,1.093,1.093,0,0,0-1.548-.132l-2.482,2.107a9.319,9.319,0,0,0-7.133-2.513l-1.964-10.891a6.575,6.575,0,0,0,3.151-2.419,6.751,6.751,0,0,0,.774-1.446Zm-10.059,26.35a7.112,7.112,0,0,1-10.055-.882,7.225,7.225,0,0,1,.832-10.125,7.113,7.113,0,0,1,10.055.882,7.225,7.225,0,0,1-.833,10.125Zm-14.023-31.312a4.476,4.476,0,0,1,.75-3.353,4.4,4.4,0,0,1,2.878-1.822,4.511,4.511,0,0,1,5.149,5.281.007.007,0,0,0,0,0s0,.01,0,.015a4.481,4.481,0,0,1-.736,1.736,4.4,4.4,0,0,1-2.878,1.822,4.491,4.491,0,0,1-5.159-3.682ZM1568,637.957a4.4,4.4,0,0,1-1.81.437h-.032a4.428,4.428,0,0,1-1.568-.259,4.524,4.524,0,0,1-2.735-5.74,4.441,4.441,0,0,1,7.6-1.386,4.529,4.529,0,0,1,.811,4.4,4.422,4.422,0,0,1-2.27,2.548Zm3.86-7.317,10.948-9.295a6.644,6.644,0,0,0,4.3,1.5l1.97,10.924a9.285,9.285,0,0,0-5.606,5.1l-10.863-3.727a6.753,6.753,0,0,0-.748-4.5Zm-3.53,23.76-.93-13.925a6.646,6.646,0,0,0,4.458-3.26l10.969,3.764a9.464,9.464,0,0,0,1.395,6.876l-8.973,7.617a6.648,6.648,0,0,0-6.919-1.073Zm-.786,9.06a4.516,4.516,0,0,1,.519-6.328,4.446,4.446,0,0,1,6.285.553,4.516,4.516,0,0,1-.519,6.329,4.445,4.445,0,0,1-6.284-.553Zm9,.749a6.762,6.762,0,0,0,.116-7.045l8.973-7.618a9.317,9.317,0,0,0,6.5,2.544l1.83,11.518a6.581,6.581,0,0,0-3.171,2.426,6.775,6.775,0,0,0-.774,1.447Zm19.585-.994-1.813-11.409a9.281,9.281,0,0,0,5.921-4.678l10.375,3.777a6.753,6.753,0,0,0,.74,4.516l-10.948,9.295a6.636,6.636,0,0,0-4.276-1.5Zm.869,11.131a4.49,4.49,0,0,1-5.159-3.682,4.539,4.539,0,0,1,.01-1.6.011.011,0,0,0,0,0c0-.01,0-.019.005-.029a4.46,4.46,0,0,1,.734-1.722,4.395,4.395,0,0,1,2.877-1.822,4.506,4.506,0,0,1,4.409,7.035,4.4,4.4,0,0,1-2.877,1.822Zm0,0" transform="translate(-1559.411 -609.439)" fill="#e2a321"/></svg>