<svg xmlns="http://www.w3.org/2000/svg" width="88.928" height="66.677" viewBox="0 0 88.928 66.677"><g transform="matrix(0.984, -0.177, 0.177, 0.984, 0, 14.264)"><path d="M3.309,0H1.317a1.316,1.316,0,1,0,0,2.631H3.309A1.316,1.316,0,1,0,3.309,0Zm0,0" transform="translate(60.81 11.159)" fill="#e2a321"/><path d="M3.309,0H1.317a1.316,1.316,0,1,0,0,2.631H3.309A1.316,1.316,0,1,0,3.309,0Zm0,0" transform="translate(53.736 11.159)" fill="#e2a321"/><path d="M3.309,0H1.317a1.316,1.316,0,1,0,0,2.631H3.309A1.316,1.316,0,1,0,3.309,0Zm0,0" transform="translate(46.486 11.159)" fill="#e2a321"/><path d="M9.4,3.861,1.9.137A1.317,1.317,0,0,0,0,1.316V8.761A1.318,1.318,0,0,0,1.9,9.94L9.4,6.216a1.314,1.314,0,0,0,0-2.356ZM2.634,6.638v-3.2l3.222,1.6Zm0,0" transform="translate(28.183 22.119)" fill="#e2a321"/><path d="M59.134,0H1.317A1.316,1.316,0,0,0,0,1.316V30.439a1.317,1.317,0,0,0,1.317,1.316H59.134a1.317,1.317,0,0,0,1.317-1.316V1.316A1.316,1.316,0,0,0,59.134,0ZM40.729,29.124H2.634V9.693H40.729ZM2.634,7.061V2.631H57.817v4.43ZM57.817,29.124H43.362V9.693H57.817Zm0,0" transform="translate(10.161 7.646)" fill="#e2a321"/><path d="M80.3,45.264a2.445,2.445,0,0,0-1.966-.995H74.985V3.788A3.8,3.8,0,0,0,71.188,0H9.585a3.8,3.8,0,0,0-3.8,3.788v40.48H2.435A2.43,2.43,0,0,0,.113,47.433l.647,2.035a5.411,5.411,0,0,0,5.18,3.785H47.8a1.316,1.316,0,1,0,0-2.632H5.941a2.787,2.787,0,0,1-2.669-1.948L2.707,46.9H78.065L77.5,48.675a2.787,2.787,0,0,1-2.669,1.948H55.709a1.315,1.315,0,1,0,0,2.631H74.831a5.411,5.411,0,0,0,5.181-3.783l.648-2.037a2.44,2.44,0,0,0-.356-2.17Zm-7.954-1H8.422V3.788A1.161,1.161,0,0,1,9.585,2.632h61.6a1.161,1.161,0,0,1,1.163,1.157Zm0,0" transform="translate(0 0)" fill="#e2a321"/><path d="M2.744,0H1.317a1.316,1.316,0,1,0,0,2.631H2.744A1.316,1.316,0,1,0,2.744,0Zm0,0" transform="translate(38.356 3.899)" fill="#e2a321"/></g></svg>