<svg xmlns="http://www.w3.org/2000/svg" width="71.571" height="79.26" viewBox="0 0 71.571 79.26"><g transform="matrix(0.987, 0.16, -0.16, 0.987, 11.272, 0)"><g transform="translate(0 0)"><path d="M13.981,0H1.149a1.148,1.148,0,1,0,0,2.3H13.981a1.148,1.148,0,1,0,0-2.3Zm0,0" transform="translate(22.97 5.884)" fill="#e2a321"/><path d="M5.732,0H1.148a1.148,1.148,0,1,0,0,2.3H5.732a1.148,1.148,0,1,0,0-2.3Zm0,0" transform="translate(27.094 62.522)" fill="#e2a321"/><path d="M61.084,20.486a1.159,1.159,0,0,0-.335-.773l-8.382-8.378V8.926A8.938,8.938,0,0,0,43.435,0h-25.8A8.94,8.94,0,0,0,8.7,8.926v2.426L.336,19.713A1.161,1.161,0,0,0,0,20.525v7.786a6.016,6.016,0,0,0,6.011,6.008h.073a5.977,5.977,0,0,0,2.618-.6v27.75A8.941,8.941,0,0,0,17.634,70.4h25.8a8.941,8.941,0,0,0,8.932-8.928V50.835a1.148,1.148,0,0,0-2.3,0v5.737H11V31.909a6.006,6.006,0,0,0,4.811,2.41h.072a6.007,6.007,0,0,0,4.863-2.483,6,6,0,0,0,4.862,2.483h.073a6,6,0,0,0,4.862-2.483,6.007,6.007,0,0,0,4.863,2.483h.072a6.007,6.007,0,0,0,4.863-2.483A6,6,0,0,0,45.2,34.319h.072a6.006,6.006,0,0,0,4.794-2.389V43.924a1.148,1.148,0,0,0,2.3,0V33.709A5.967,5.967,0,0,0,55,34.319h.072a6.017,6.017,0,0,0,6.012-6.008V20.525c0-.013,0-.026,0-.039ZM11,8.926A6.641,6.641,0,0,1,17.634,2.3h25.8a6.641,6.641,0,0,1,6.636,6.63v1.742H11ZM9.8,28.31a3.718,3.718,0,0,1-3.714,3.713H6.012A3.718,3.718,0,0,1,2.3,28.31V21.672H9.8ZM50.071,58.868v2.6A6.642,6.642,0,0,1,43.435,68.1h-25.8A6.642,6.642,0,0,1,11,61.468v-2.6ZM19.6,28.31a3.718,3.718,0,0,1-3.715,3.713h-.072a3.718,3.718,0,0,1-3.715-3.713V21.672h7.5Zm9.8,0a3.718,3.718,0,0,1-3.715,3.713h-.072a3.718,3.718,0,0,1-3.715-3.713V21.672h7.5Zm9.8,0a3.718,3.718,0,0,1-3.714,3.713h-.073a3.719,3.719,0,0,1-3.715-3.713V21.672h7.5Zm9.8,0a3.718,3.718,0,0,1-3.715,3.713H45.2a3.718,3.718,0,0,1-3.715-3.713V21.672h7.5Zm1.148-8.933H3.92l6.406-6.4H50.76l6.4,6.4Zm4.935,12.647H55a3.718,3.718,0,0,1-3.715-3.713V21.672h7.5v6.638a3.719,3.719,0,0,1-3.715,3.713Zm0,0" fill="#e2a321"/><path d="M8.118,0H1.148A1.149,1.149,0,0,0,0,1.148V8.1A1.149,1.149,0,0,0,1.148,9.249H8.118A1.148,1.148,0,0,0,9.266,8.1V1.148A1.148,1.148,0,0,0,8.118,0ZM6.969,6.953H2.3V2.3H6.969Zm0,0" transform="translate(17.468 40.035)" fill="#e2a321"/><path d="M12.937,0H1.149a1.148,1.148,0,1,0,0,2.3H12.937a1.148,1.148,0,1,0,0-2.3Zm0,0" transform="translate(29.515 41.469)" fill="#e2a321"/><path d="M12.937,0H1.149a1.148,1.148,0,1,0,0,2.3H12.937a1.148,1.148,0,1,0,0-2.3Zm0,0" transform="translate(29.515 45.554)" fill="#e2a321"/></g></g></svg>